<svg viewBox="0 0 80 80" fill="none" xmlns="http://www.w3.org/2000/svg">
<path d="M65.5665 16.2638C67.1514 17.4478 69.0814 18.0786 71.0596 18.059C73.0379 18.0395 74.955 17.3708 76.5162 16.1557C78.0775 14.9406 79.1965 13.2464 79.7012 11.3334C80.2059 9.4205 80.0685 7.39474 79.3099 5.56754C78.5514 3.74034 77.2137 2.21284 75.5026 1.21983C73.7915 0.226818 71.8016 -0.176735 69.8389 0.0712003C67.8761 0.319136 66.0491 1.20484 64.6387 2.59216C63.2282 3.97948 62.3124 5.79163 62.0321 7.75007H17.9679C17.6876 5.79163 16.7718 3.97948 15.3613 2.59216C13.9509 1.20484 12.1239 0.319136 10.1611 0.0712003C8.19836 -0.176735 6.2085 0.226818 4.49739 1.21983C2.78628 2.21284 1.44865 3.74034 0.690104 5.56754C-0.0684441 7.39474 -0.205922 9.4205 0.298803 11.3334C0.803527 13.2464 1.92252 14.9406 3.48377 16.1557C5.04502 17.3708 6.96212 18.0395 8.94039 18.059C10.9186 18.0786 12.8486 17.4478 14.4335 16.2638L32.7764 34.6071C31.8761 35.8113 31.2909 37.2214 31.0737 38.7092H9.0416C8.69949 38.7092 8.37139 38.8451 8.12948 39.087C7.88757 39.3289 7.75166 39.657 7.75166 39.9991V62.0317C5.79327 62.312 3.98116 63.2278 2.59387 64.6383C1.20658 66.0488 0.320896 67.8758 0.0729661 69.8386C-0.174964 71.8015 0.22858 73.7914 1.22157 75.5025C2.21456 77.2137 3.74203 78.5513 5.56919 79.3099C7.39634 80.0684 9.42206 80.2059 11.335 79.7012C13.2478 79.1964 14.942 78.0774 16.1571 76.5162C17.3722 74.9549 18.0409 73.0377 18.0604 71.0594C18.0799 69.0811 17.4492 67.1511 16.2652 65.5662L34.6081 47.2229C36.1614 48.3949 38.0542 49.0289 40 49.0289C41.9458 49.0289 43.8386 48.3949 45.3919 47.2229L63.7348 65.5662C62.5508 67.1511 61.9201 69.0811 61.9396 71.0594C61.9591 73.0377 62.6278 74.9549 63.8429 76.5162C65.058 78.0774 66.7522 79.1964 68.6651 79.7012C70.5779 80.2059 72.6037 80.0684 74.4308 79.3099C76.258 78.5513 77.7854 77.2137 78.7784 75.5025C79.7714 73.7914 80.175 71.8015 79.927 69.8386C79.6791 67.8758 78.7934 66.0488 77.4061 64.6383C76.0188 63.2278 74.2067 62.312 72.2483 62.0317V39.9991C72.2483 39.657 72.1124 39.3289 71.8705 39.087C71.6286 38.8451 71.3005 38.7092 70.9584 38.7092H48.9263C48.7091 37.2214 48.1239 35.8113 47.2236 34.6071L65.5665 16.2638ZM31.0737 41.2891C31.2909 42.7769 31.8761 44.1869 32.7764 45.3912L14.4335 63.7344C13.2293 62.8342 11.8193 62.2489 10.3315 62.0317V41.2891H31.0737ZM34.6081 32.7753L16.2652 14.4321C17.1655 13.2278 17.7507 11.8178 17.9679 10.33H62.0321C62.2493 11.8178 62.8345 13.2278 63.7348 14.4321L45.3919 32.7753C43.8386 31.6033 41.9458 30.9693 40 30.9693C38.0542 30.9693 36.1614 31.6033 34.6081 32.7753ZM69.6685 62.0317C68.1807 62.2489 66.7707 62.8342 65.5665 63.7344L47.2236 45.3912C48.1239 44.1869 48.7091 42.7769 48.9263 41.2891H69.6685V62.0317Z" fill="currentColor"/>
</svg>
