<svg viewBox="0 0 96 96" fill="none" xmlns="http://www.w3.org/2000/svg">
<path d="M87.211 73.4993H93.0001C94.6563 73.4993 96.0001 72.1555 96.0001 70.4993C96.0001 69.7376 95.711 69.0071 95.1915 68.4524L76.1015 47.9994L95.1955 27.5464C96.3283 26.3355 96.2619 24.437 95.051 23.3081C94.4924 22.7886 93.7619 22.4995 93.0002 22.4995H87.2111L95.7189 4.26955C96.4181 2.76955 95.7696 0.98435 94.2697 0.28125C93.8712 0.09766 93.4376 0 93.0002 0H3.00017C1.34397 0 0.000166433 1.3438 0.000166433 3C0.000166433 3.4375 0.0978224 3.87109 0.281416 4.2695L8.78922 22.4995H3.00012C1.34392 22.4995 0.000116365 23.8433 0.000116365 25.4995C0.000116365 26.2612 0.289177 26.9917 0.808707 27.5464L19.8987 47.9994L0.808707 68.4524C-0.324093 69.6633 -0.257694 71.5618 0.953236 72.6907C1.50793 73.2102 2.23844 73.4993 3.00014 73.4993H8.78924L0.281436 91.7293C-0.417784 93.2293 0.230655 95.0145 1.73064 95.7176C2.12908 95.9012 2.56267 95.9988 3.00014 95.9988H93.0001C94.6563 95.9988 96.0001 94.655 96.0001 92.9988C96.0001 92.5613 95.9025 92.1277 95.7189 91.7293L87.211 73.4993ZM7.71099 5.99934H88.289L80.5898 22.4993H15.4098L7.71099 5.99934ZM9.89849 28.4993H86.0975L70.6995 44.9993H25.3015L9.89849 28.4993ZM25.3005 50.9993H70.6985L86.0965 67.4993H9.89749L25.3005 50.9993ZM7.71049 89.9993L15.4097 73.4993H80.5897L88.2889 89.9993H7.71049Z" fill="currentColor"/>
</svg>
