<svg viewBox="0 0 25 30" fill="none" xmlns="http://www.w3.org/2000/svg">
<path d="M23.1087 14.252C24.1894 14.252 25 13.4646 25 12.3622C25 11.8425 24.7934 11.3543 24.3802 10.9449L13.9701 0.614173C13.5887 0.220472 13.0483 0 12.5079 0C11.9676 0 11.4113 0.220472 11.0299 0.614173L0.619835 10.9449C0.206614 11.3543 1.90735e-06 11.8425 1.90735e-06 12.3622C1.90735e-06 13.4646 0.810555 14.252 1.89129 14.252C2.46345 14.252 2.94024 14.0157 3.30579 13.6693L6.89765 10.1417L10.6643 5.90551L10.5213 9.33858V28C10.5213 29.1969 11.3319 30 12.5079 30C13.684 30 14.4787 29.1969 14.4787 28V9.33858L14.3516 5.88976L18.1182 10.1417L21.6942 13.6693C22.0598 14.0157 22.5366 14.252 23.1087 14.252Z" fill="currentColor"/>
</svg>
