<svg viewBox="0 0 30 25" fill="none" xmlns="http://www.w3.org/2000/svg">
  <path
    d="M15.748 1.89129C15.748 0.810553 16.5354 0 17.6378 0C18.1575 0 18.6457 0.206612 19.0551 0.619835L29.3858 11.0299C29.7795 11.4113 30 11.9517 30 12.4921C30 13.0324 29.7795 13.5887 29.3858 13.9701L19.0551 24.3802C18.6457 24.7934 18.1575 25 17.6378 25C16.5354 25 15.748 24.1894 15.748 23.1087C15.748 22.5366 15.9843 22.0598 16.3307 21.6942L19.8583 18.1024L24.0945 14.3357L20.6614 14.4787H2C0.803148 14.4787 0 13.6681 0 12.4921C0 11.316 0.803148 10.5213 2 10.5213H20.6614L24.1102 10.6484L19.8583 6.88175L16.3307 3.30578C15.9843 2.94024 15.748 2.46345 15.748 1.89129Z"
    fill="#A1A1A1"
  />
</svg>
