<svg viewBox="0 0 25 30" fill="none" xmlns="http://www.w3.org/2000/svg">
  <path
    d="M1.89129 15.748C0.810553 15.748 0 16.5354 0 17.6378C0 18.1575 0.206612 18.6457 0.619835 19.0551L11.0299 29.3858C11.4113 29.7795 11.9517 30 12.4921 30C13.0324 30 13.5887 29.7795 13.9701 29.3858L24.3802 19.0551C24.7934 18.6457 25 18.1575 25 17.6378C25 16.5354 24.1894 15.748 23.1087 15.748C22.5366 15.748 22.0598 15.9843 21.6942 16.3307L18.1024 19.8583L14.3357 24.0945L14.4787 20.6614V2C14.4787 0.803148 13.6681 0 12.4921 0C11.316 0 10.5213 0.803148 10.5213 2V20.6614L10.6484 24.1102L6.88175 19.8583L3.30578 16.3307C2.94024 15.9843 2.46345 15.748 1.89129 15.748Z"
    fill="#A1A1A1"
  />
</svg>
