<svg viewBox="0 0 30 25" fill="none" xmlns="http://www.w3.org/2000/svg">
  <path
    d="M14.252 1.89129C14.252 0.810553 13.4646 0 12.3622 0C11.8425 0 11.3543 0.206612 10.9449 0.619835L0.614173 11.0299C0.220472 11.4113 0 11.9517 0 12.4921C0 13.0324 0.220472 13.5887 0.614173 13.9701L10.9449 24.3802C11.3543 24.7934 11.8425 25 12.3622 25C13.4646 25 14.252 24.1894 14.252 23.1087C14.252 22.5366 14.0157 22.0598 13.6693 21.6942L10.1417 18.1024L5.90551 14.3357L9.33858 14.4787H28C29.1969 14.4787 30 13.6681 30 12.4921C30 11.316 29.1969 10.5213 28 10.5213H9.33858L5.88976 10.6484L10.1417 6.88175L13.6693 3.30578C14.0157 2.94024 14.252 2.46345 14.252 1.89129Z"
    fill="#A1A1A1"
  />
</svg>
