<svg width="91" height="84" viewBox="0 0 91 84" fill="none" xmlns="http://www.w3.org/2000/svg">
<path d="M45.3135 72.6631C46.1765 72.6633 46.8758 73.3626 46.876 74.2256V81.835C46.876 82.6981 46.1765 83.3972 45.3135 83.3975C44.4502 83.3975 43.751 82.6982 43.751 81.835V74.2256C43.7511 73.3624 44.4503 72.6631 45.3135 72.6631ZM10.4961 67.7227C11.3594 67.7227 12.0586 68.4219 12.0586 69.2852V74.957H17.7305C18.5937 74.957 19.293 75.6563 19.293 76.5195C19.2928 77.3827 18.5936 78.082 17.7305 78.082H10.4961C9.63293 78.082 8.93378 77.3827 8.93359 76.5195V69.2852C8.93359 68.4219 9.63281 67.7227 10.4961 67.7227ZM80.1328 67.7227C80.9961 67.7227 81.6953 68.4219 81.6953 69.2852V76.5195C81.6952 77.3827 80.996 78.082 80.1328 78.082H72.8984C72.0352 78.082 71.3361 77.3827 71.3359 76.5195C71.3359 75.6563 72.0352 74.957 72.8984 74.957H78.5703V69.2852C78.5703 68.4219 79.2695 67.7227 80.1328 67.7227ZM45.3086 20.8203C52.7364 20.8204 60.1439 25.5652 65.6553 30.2188C71.2061 34.9055 75.0484 39.6865 75.3799 40.1045H75.3809C76.123 41.0389 76.1231 42.3595 75.3809 43.2939L75.3799 43.2949C75.0557 43.7016 71.2106 48.4855 65.6553 53.1768C60.1439 57.8308 52.7366 62.5771 45.3086 62.5771C37.8827 62.5771 30.4767 57.8322 24.9658 53.1787C19.4141 48.4907 15.5709 43.7087 15.2412 43.293C14.4989 42.3585 14.498 41.0389 15.2402 40.1045L15.2412 40.1025C15.5669 39.6939 19.412 34.911 24.9658 30.2207C30.4767 25.5668 37.8828 20.8203 45.3086 20.8203ZM45.3086 58.4521L44.7988 58.4434C44.969 58.4497 45.139 58.4531 45.3086 58.4531L45.8184 58.4434C45.6482 58.4497 45.4782 58.4521 45.3086 58.4521ZM45.3086 25.9443C40.2376 25.9443 34.757 29.0188 30.04 32.7168C25.8557 35.9972 22.4184 39.6515 20.6133 41.6973C22.4196 43.743 25.8576 47.3994 30.043 50.6807C34.7599 54.3786 40.2392 57.4521 45.3086 57.4521C50.3796 57.4521 55.8602 54.3787 60.5771 50.6807C64.7623 47.3996 68.1991 43.7438 70.0039 41.6982C68.1992 39.6526 64.7619 35.9976 60.5771 32.7168C55.8603 29.0189 50.38 25.9444 45.3086 25.9443ZM59.2324 52.9326L59.3701 52.8369C59.4752 52.7615 59.5783 52.6835 59.6826 52.6074C59.5332 52.7164 59.3833 52.8251 59.2324 52.9326ZM52.0625 30.2461C54.656 30.2461 56.7654 32.3547 56.7656 34.9482C56.7656 36.0653 56.3592 37.0811 55.7031 37.8896C56.1601 39.1317 56.4687 40.4211 56.4688 41.6982C56.4688 47.8503 51.4648 52.8545 45.3125 52.8545C39.1645 52.8544 34.1611 47.8503 34.1611 41.6982C34.1614 35.5464 39.1643 30.543 45.3125 30.543C46.5938 30.543 47.8828 30.8516 49.125 31.3086C49.9297 30.6563 50.9454 30.2461 52.0625 30.2461ZM59.9248 52.4307C60.0742 52.3205 60.2224 52.2091 60.3701 52.0977C60.2224 52.2091 60.0741 52.3204 59.9248 52.4307ZM60.5762 51.9424C60.7767 51.7897 60.9756 51.636 61.1729 51.4814C60.9756 51.636 60.7766 51.7896 60.5762 51.9424ZM62.918 50.0615C62.3754 50.5199 61.816 50.9757 61.2432 51.4258C61.8159 50.9757 62.3754 50.52 62.918 50.0615ZM62.9707 50.0156C63.2331 49.7934 63.4916 49.571 63.7461 49.3486C63.4916 49.571 63.2331 49.7935 62.9707 50.0156ZM45.3125 33.668C40.887 33.668 37.2854 37.2689 37.2852 41.6982C37.2852 46.1278 40.8829 49.7294 45.3125 49.7295V49.7334C49.7382 49.7334 53.3438 46.1318 53.3438 41.7021C53.3437 40.9915 53.203 40.2692 53 39.5586C52.6993 39.6211 52.3827 39.6523 52.0625 39.6523C49.4729 39.6523 47.3635 37.5428 47.3633 34.9492C47.3633 34.6252 47.3946 34.3124 47.457 34.0078C46.75 33.8047 46.0352 33.668 45.3125 33.668ZM65.2812 47.9668C64.8102 48.4033 64.321 48.8452 63.8154 49.2881C64.321 48.8452 64.8102 48.4033 65.2812 47.9668ZM65.4199 47.8379C65.5682 47.6998 65.7139 47.5616 65.8584 47.4248C65.7139 47.5616 65.5682 47.6998 65.4199 47.8379ZM66.7754 46.5459C66.747 46.5737 66.718 46.601 66.6895 46.6289C67.0647 46.2629 67.4253 45.9054 67.7686 45.5576L66.7754 46.5459ZM71.3301 41.6982C70.9316 42.1621 70.397 42.7727 69.7432 43.4844C70.397 42.7727 70.9326 42.1631 71.3311 41.6992L71.3301 41.6982ZM89.0625 40.1367C89.9257 40.1367 90.6249 40.836 90.625 41.6992C90.625 42.5625 89.9258 43.2617 89.0625 43.2617H81.4531C80.5898 43.2617 79.8906 42.5625 79.8906 41.6992C79.8907 40.836 80.5899 40.1367 81.4531 40.1367H89.0625ZM9.17188 40.1357C10.0351 40.1357 10.7343 40.835 10.7344 41.6982C10.7344 42.5615 10.0352 43.2607 9.17188 43.2607H1.5625C0.69922 43.2607 0 42.5615 0 41.6982C6.59108e-05 40.835 0.699261 40.1357 1.5625 40.1357H9.17188ZM74.5977 42.6719L74.6729 42.5693L74.6748 42.5654C74.6508 42.6017 74.6251 42.6373 74.5977 42.6719ZM52.0625 33.3711C51.1915 33.3712 50.4883 34.0782 50.4883 34.9492C50.4884 35.8201 51.1916 36.5273 52.0625 36.5273C52.9335 36.5273 53.6405 35.8202 53.6406 34.9492C53.6406 34.0781 52.9336 33.3711 52.0625 33.3711ZM45.9697 21.834C46.2987 21.847 46.6279 21.8689 46.957 21.9004C46.6279 21.8687 46.2988 21.846 45.9697 21.833L45.3086 21.8203L45.9697 21.834ZM17.7305 5.32422C18.5937 5.32422 19.293 6.02344 19.293 6.88672C19.2928 7.74983 18.5936 8.44922 17.7305 8.44922H12.0586V14.1211C12.0584 14.9842 11.3593 15.6836 10.4961 15.6836C9.63293 15.6836 8.93378 14.9842 8.93359 14.1211V6.88672C8.93359 6.02344 9.63281 5.32422 10.4961 5.32422H17.7305ZM80.1328 5.32031C80.9961 5.32031 81.6953 6.01953 81.6953 6.88281V14.1172C81.6951 14.9803 80.996 15.6797 80.1328 15.6797C79.2697 15.6797 78.5705 14.9803 78.5703 14.1172V8.44531H72.8984C72.0353 8.44531 71.3361 7.74592 71.3359 6.88281C71.3359 6.01953 72.0352 5.32031 72.8984 5.32031H80.1328ZM45.3125 0C46.1756 0.000263599 46.875 0.699383 46.875 1.5625V9.17188C46.875 10.035 46.1756 10.7341 45.3125 10.7344C44.4492 10.7344 43.75 10.0352 43.75 9.17188V1.5625C43.75 0.69922 44.4492 0 45.3125 0Z" fill="black"/>
</svg>
