<svg width="88" height="70" viewBox="0 0 88 70" fill="none" xmlns="http://www.w3.org/2000/svg">
<path d="M45.6719 65.465C45.6719 67.9719 43.6522 70 41.1597 70C38.663 70 36.6432 67.9677 36.6432 65.465C36.6432 62.9623 38.6672 60.9343 41.1597 60.9343C43.6522 60.9343 45.6719 62.9623 45.6719 65.465ZM55.5771 6.15732C51.6408 2.20491 46.3466 0 40.7818 0C36.3083 0 31.9853 1.42826 28.3836 4.0948C24.7825 6.75713 22.1053 10.5197 20.7904 14.813C20.1544 16.8927 21.3146 19.0976 23.3903 19.7362C25.4615 20.3748 27.6532 19.2098 28.2934 17.13C29.1142 14.4504 30.7901 12.1031 33.0333 10.4419C35.2894 8.77636 37.9881 7.89179 40.7814 7.89179C44.2622 7.89179 47.5625 9.26394 50.0248 11.7364C52.4828 14.2045 53.8537 17.5227 53.8537 21.0177C53.8537 24.064 52.818 26.9894 50.8886 29.3454C48.9634 31.697 46.2905 33.3108 43.3125 33.8933C41.4905 34.2515 39.8575 35.2223 38.6714 36.6635C37.4896 38.1004 36.8537 39.8997 36.8537 41.7637V51.593C36.8537 53.772 38.6113 55.5368 40.7814 55.5368C42.9515 55.5368 44.7133 53.7719 44.7133 51.593V41.7637C44.7133 41.7378 44.7176 41.6903 44.7305 41.6688C44.7477 41.6515 44.795 41.6386 44.8165 41.6343C49.5864 40.6979 53.8666 38.1133 56.9473 34.3507C60.0328 30.5837 61.7044 25.8935 61.7044 21.018C61.7044 15.4302 59.5171 10.1143 55.5765 6.16209L55.5771 6.15732ZM23.1966 61.1847C21.6625 61.7629 20.889 63.4844 21.4691 65.0206C22.045 66.561 23.7596 67.3378 25.2895 66.7552C26.8236 66.177 27.5972 64.4554 27.017 62.9192C26.4411 61.3788 24.7266 60.6064 23.1966 61.1847ZM19.4193 24.1459C16.089 22.6314 12.3202 22.5105 8.89958 23.8051C6.14932 24.8449 3.81589 26.7305 2.21733 29.2073C0.618769 31.6797 -0.154714 34.6181 0.0257026 37.5652C0.111648 38.9892 1.33637 40.0807 2.7588 39.9901C4.17694 39.8995 5.25978 38.6741 5.17386 37.2459C5.06213 35.412 5.55202 33.5782 6.5447 32.0291C7.54597 30.4801 8.99848 29.3108 10.7217 28.6592C12.8617 27.848 15.2037 27.9256 17.288 28.8706C19.3721 29.8199 20.9751 31.5415 21.7829 33.6903C22.4876 35.563 22.5306 37.604 21.8817 39.4982C21.2414 41.388 19.9694 43.0062 18.2764 44.059C17.2364 44.7019 16.4587 45.677 16.0633 46.8421C15.6679 48.0028 15.6937 49.2584 16.1234 50.4019L18.3924 56.4428C18.8909 57.7804 20.3821 58.4578 21.7185 57.9573C23.0506 57.4482 23.7253 55.9552 23.2225 54.6133L20.9578 48.5724C20.9536 48.5552 20.9407 48.5207 20.9493 48.512C20.9536 48.4948 20.9793 48.4775 20.9879 48.4689C23.7039 46.7904 25.7407 44.1971 26.7678 41.1638C27.7948 38.1304 27.7432 34.8554 26.6174 31.8565C25.3281 28.4218 22.7498 25.6605 19.4193 24.1459ZM63.7073 62.4881C62.2075 61.8107 60.4586 62.4795 59.7796 63.9768C59.1049 65.4741 59.7624 67.2388 61.2579 67.9163C62.7491 68.5937 64.5066 67.9335 65.1856 66.4319C65.8603 64.9346 65.2028 63.1699 63.7073 62.4881ZM87.1142 33.6169C85.825 30.1822 83.251 27.4207 79.9162 25.9061C77.239 24.6893 74.2653 24.3657 71.3904 24.9784C68.5155 25.5954 65.8985 27.1229 63.9518 29.3278C63.0107 30.3979 63.1096 32.0376 64.1753 32.9825C65.241 33.9275 66.874 33.8283 67.8151 32.7582C69.027 31.3817 70.6642 30.4281 72.4605 30.0485C74.2611 29.6601 76.1132 29.8672 77.7848 30.631C79.8689 31.5759 81.4762 33.2976 82.284 35.4464C83.0919 37.5952 83.0102 39.9468 82.0691 42.0396C81.2484 43.8648 79.8389 45.3362 78.0469 46.2208C76.2636 47.1053 74.2266 47.3426 72.2843 46.8853C71.0982 46.6048 69.8563 46.7386 68.7562 47.2822C67.6647 47.8216 66.7967 48.7191 66.2939 49.8367L63.6424 55.7221C63.0537 57.0253 63.6338 58.5656 64.9316 59.1525C66.2294 59.7437 67.7635 59.1698 68.348 57.858L71.0037 51.9768C71.008 51.9596 71.0252 51.9337 71.0381 51.9208C71.0467 51.9164 71.0811 51.9208 71.0983 51.9251C74.2052 52.6586 77.4669 52.2789 80.3245 50.8636C83.1908 49.444 85.4598 47.0967 86.7748 44.1755C88.2831 40.8315 88.4035 37.0473 87.11 33.6127L87.1142 33.6169Z" fill="black"/>
</svg>
