<svg viewBox="0 0 104 120" fill="none" xmlns="http://www.w3.org/2000/svg">
<path d="M103.968 15.6926C103.968 15.6861 103.974 15.6797 103.974 15.6732C103.974 15.6539 103.961 15.6409 103.955 15.6151C103.942 15.5247 103.916 15.4408 103.877 15.3633C103.864 15.3374 103.864 15.3052 103.851 15.2793C103.845 15.2729 103.838 15.2664 103.832 15.26C103.826 15.247 103.826 15.2406 103.819 15.2277C103.755 15.1308 103.664 15.0533 103.574 15.0017L103.567 14.9952L78.6455 0.116927C78.3613 -0.0509659 78.006 -0.0380556 77.7411 0.155671L72.78 3.71373C72.7218 3.75247 72.6895 3.81705 72.6443 3.87517C72.612 3.91391 72.5668 3.95266 72.541 3.99786C72.5022 4.07535 72.4893 4.16575 72.4699 4.25616C72.4634 4.30137 72.4376 4.34011 72.4376 4.38532V21.3746L67.4182 18.5398C67.218 18.4301 66.9725 18.3978 66.7529 18.4753C66.5332 18.5463 66.3523 18.7077 66.2555 18.9208L58.3809 36.2656L47.8642 30.3311C47.664 30.2149 47.425 30.1891 47.1989 30.2666C46.9792 30.3376 46.7983 30.499 46.7015 30.7121L39.7894 45.9455L32.8709 41.3994C32.6771 41.2767 32.438 41.2315 32.2119 41.2896C31.9859 41.3477 31.7985 41.4962 31.6887 41.6964L0.0992515 100.356C-0.0880824 100.705 -0.00410634 101.131 0.299501 101.383L22.256 119.619C22.256 119.625 22.256 119.625 22.2625 119.632C22.3658 119.78 22.5273 119.864 22.7082 119.923C22.7469 119.935 22.7792 119.942 22.818 119.948C22.8632 119.955 22.902 119.974 22.9472 119.974C22.973 119.974 22.986 120 23.0118 120C23.0764 120 23.1345 119.994 23.1991 119.981C23.2121 119.981 23.2185 119.968 23.2314 119.968L28.4704 119.38C28.7417 119.348 28.9872 119.186 29.1164 118.935L36.4806 104.689L42.7403 109.209C42.7855 109.242 42.8501 109.242 42.9018 109.261C43.0374 109.345 43.1796 109.41 43.3411 109.41C43.3927 109.41 43.438 109.403 43.4896 109.397L48.7738 108.441C49.0451 108.389 49.2777 108.208 49.3875 107.957L55.9442 92.8395L62.3007 97.4243C62.346 97.4566 62.4106 97.4566 62.4622 97.476C62.5914 97.5599 62.74 97.618 62.8951 97.618C62.9403 97.618 62.992 97.6116 63.0436 97.6051L68.3278 96.6494C68.5991 96.5978 68.8316 96.4169 68.9415 96.1651L79.1545 72.6144L97.5853 83.6181C97.6305 83.6504 97.6693 83.7085 97.7209 83.7343C97.8308 83.7924 97.96 83.8247 98.0892 83.8247C98.0956 83.8247 98.0956 83.8183 98.1021 83.8183C98.115 83.8183 98.1279 83.8312 98.1408 83.8312C98.3023 83.8312 98.4703 83.7795 98.6189 83.6956C98.6641 83.6697 98.6899 83.6116 98.7287 83.5793L103.645 80.1439C103.864 79.989 104 79.7371 104 79.4659L103.968 15.7042L103.968 15.6926ZM78.2572 1.81532L101.623 15.7637L98.0763 18.2434L94.4006 16.0543L74.756 4.32726L78.2572 1.81532ZM32.7153 43.2794L45.7513 51.8486L53.6969 57.0729L48.1738 67.8829L22.6635 117.806L1.87616 100.546L32.7153 43.2794ZM27.8446 117.78L24.4725 118.154L35.3833 96.8057L54.6078 59.1835L55.9321 63.4455L35.4408 103.076L27.8446 117.78ZM57.5471 63.904C57.644 63.7103 57.6634 63.4842 57.5988 63.2776L55.6673 57.0396C55.6737 57.0267 55.6608 57.0138 55.6608 57.0073C55.6931 56.8588 55.6802 56.7168 55.635 56.5811C55.6221 56.5553 55.6156 56.5359 55.6027 56.5166C55.5381 56.381 55.4476 56.2518 55.3184 56.1614L41.1778 46.8689L47.8249 32.2231L65.3445 42.1033L69.6919 44.5572L42.8636 107.261L37.2371 103.199L57.5471 63.904ZM48.0318 106.886L44.6921 107.493L70.7515 46.6042L72.36 50.7693L48.0318 106.886ZM74.0135 51.1186C74.0974 50.9184 74.1039 50.6924 74.0264 50.4922L71.6749 44.4027C71.6814 44.3898 71.6685 44.3769 71.6685 44.3639C71.6879 44.2154 71.6685 44.0734 71.6103 43.9378C71.5974 43.9119 71.5845 43.8925 71.5716 43.8732C71.5005 43.7376 71.4036 43.6213 71.2615 43.5374L59.8146 37.0863L67.3726 20.4326L81.5713 28.4401L89.2456 32.7667L62.4106 95.4703L56.5968 91.2793L74.0135 51.1186ZM67.5795 95.0954L64.2398 95.7025L90.2992 34.8206L91.9077 38.9857L77.9866 71.093L67.5795 95.0954ZM93.5611 39.3218C93.6451 39.1216 93.6516 38.8956 93.574 38.6954L91.2226 32.6059C91.2226 32.593 91.2162 32.58 91.2162 32.5671C91.2355 32.4186 91.2162 32.2765 91.158 32.1409C91.1451 32.1151 91.1322 32.0957 91.1193 32.0764C91.0482 31.9408 90.9513 31.8245 90.8092 31.7406L74.0785 22.3125V5.84577L97.224 19.6586V81.4778L79.7954 71.0746L93.5611 39.3218ZM99.0068 81.3281V19.6907L102.127 17.4499L102.314 17.3143V79.0161L99.0068 81.3281Z" fill="currentColor"/>
</svg>
